<svg xmlns="http://www.w3.org/2000/svg" xmlns:xlink="http://www.w3.org/1999/xlink" version="1.1" width="500" height="500" viewBox="0 0 500 500">
<defs>
<clipPath id="clip_0">
<path transform="matrix(1,0,0,-1,0,500)" d="M0 500H500V0H0Z"/>
</clipPath>
</defs>
<g id="layer_1" data-name="Layer 1">
<g clip-path="url(#clip_0)">
<path transform="matrix(1,0,0,-1,412.3623,174.81009)" d="M0 0C-.003 6.137-1.315 11.561-3.97 16.215-6.577 20.792-10.481 24.628-15.72 27.661-58.954 52.59-102.229 77.443-145.45 102.397-157.102 109.124-168.399 108.879-179.965 102.055-197.173 91.907-283.33 42.545-309.004 27.675-319.577 21.554-324.722 12.187-324.725 .011-324.741-50.123-324.725-100.255-324.741-150.39-324.738-156.393-323.482-161.71-320.944-166.295-318.335-171.01-314.376-174.952-309.018-178.053-283.343-192.924-197.174-242.282-179.97-252.433-168.399-259.26-157.102-259.504-145.446-252.775-102.225-227.819-58.946-202.967-15.705-178.039-10.347-174.938-6.388-170.994-3.779-166.283-1.245-161.698 .014-156.38 .017-150.376 .017-150.376 .017-50.135 0 0" fill="#94519c"/>
<path transform="matrix(1,0,0,-1,250.4966,249.5107)" d="M0 0-159.079-91.595C-156.47-96.31-152.511-100.251-147.152-103.353-121.477-118.224-35.309-167.581-18.104-177.732-6.534-184.56 4.764-184.804 16.419-178.074 59.641-153.118 102.919-128.267 146.161-103.338 151.519-100.237 155.478-96.293 158.086-91.582L0 0" fill="#672a7e"/>
<path transform="matrix(1,0,0,-1,203.3794,276.6416)" d="M0 0C9.257-16.16 26.659-27.061 46.621-27.061 66.706-27.061 84.207-16.022 93.417 .311L47.117 27.131 0 0" fill="#672a7e"/>
<path transform="matrix(1,0,0,-1,412.3623,174.81009)" d="M0 0C-.003 6.137-1.315 11.561-3.97 16.215L-161.866-74.701-3.779-166.283C-1.245-161.698 .014-156.38 .017-150.376 .017-150.376 .017-50.135 0 0" fill="#80398f"/>
<path transform="matrix(1,0,0,-1,296.7959,276.33113)" d="M0 0C-9.21-16.333-26.711-27.371-46.796-27.371-66.758-27.371-84.16-16.471-93.417-.311-97.913 7.542-100.499 16.634-100.499 26.332-100.499 55.991-76.454 80.034-46.796 80.034-26.962 80.034-9.652 69.271-.35 53.275L46.59 80.305C27.933 112.511-6.899 134.178-46.796 134.178-106.359 134.178-154.643 85.893-154.643 26.332-154.643 6.792-149.445-11.532-140.359-27.338-121.75-59.714-86.818-81.515-46.796-81.515-6.7-81.515 28.286-59.627 46.869-27.155L0 0" fill="#ffffff"/>
<path transform="matrix(1,0,0,-1,0,500)" d="M356.108 223.834H345.441V275.501H356.108Z" fill="#ffffff"/>
<path transform="matrix(1,0,0,-1,0,500)" d="M379.774 223.834H369.10798V275.501H379.774Z" fill="#ffffff"/>
<path transform="matrix(1,0,0,-1,0,500)" d="M336.774 266.833H388.44099V256.16603H336.774Z" fill="#ffffff"/>
<path transform="matrix(1,0,0,-1,0,500)" d="M336.774 243.167H388.44099V232.5H336.774Z" fill="#ffffff"/>
</g>
</g>
</svg>
